HIERARCHY
ROOT hip
{
	OFFSET 0.000000 0.000000 0.000000 
	CHANNELS 6 Xposition Yposition Zposition Xrotation Zrotation Yrotation
	JOINT abdomen
	{
		OFFSET 0.000000 3.402643 0.000000 
		CHANNELS 3 Xrotation Zrotation Yrotation
		JOINT chest
		{
			OFFSET 0.000000 8.438565 -0.680529 
			CHANNELS 3 Xrotation Zrotation Yrotation
			JOINT neck
			{
				OFFSET 0.000000 10.207942 -0.272212 
				CHANNELS 3 Xrotation Zrotation Yrotation
				JOINT head
				{
					OFFSET 0.000000 3.130431 0.000000 
					CHANNELS 3 Xrotation Zrotation Yrotation
					End Site
					{
						OFFSET 0.000000 3.130435 0.000000 
					}
				}
			}
			JOINT lCollar
			{
				OFFSET 3.470700 6.669187 -0.816635 
				CHANNELS 3 Yrotation Zrotation Xrotation
				JOINT lShldr
				{
					OFFSET 3.198488 0.000000 0.000000 
					CHANNELS 3 Zrotation Yrotation Xrotation
					JOINT lForeArm
					{
						OFFSET 10.139888 0.000000 0.000000 
						CHANNELS 3 Yrotation Zrotation Xrotation
						JOINT lHand
						{
							OFFSET 8.370511 0.000000 0.000000 
							CHANNELS 3 Zrotation Yrotation Xrotation
							End Site
							{
								OFFSET 4.083176 0.000000 0.000000 
							}
						}
					}
				}
			}
			JOINT rCollar
			{
				OFFSET -3.470700 6.669187 -0.816635 
				CHANNELS 3 Yrotation Zrotation Xrotation
				JOINT rShldr
				{
					OFFSET -3.198488 0.000000 0.000000 
					CHANNELS 3 Zrotation Yrotation Xrotation
					JOINT rForeArm
					{
						OFFSET -10.139888 0.000000 0.000000 
						CHANNELS 3 Yrotation Zrotation Xrotation
						JOINT rHand
						{
							OFFSET -8.370511 0.000000 0.000000 
							CHANNELS 3 Zrotation Yrotation Xrotation
							End Site
							{
								OFFSET -4.083176 0.000000 0.000000 
							}
						}
					}
				}
			}
		}
	}
	JOINT lThigh
	{
		OFFSET 5.308129 -1.633274 1.361059 
		CHANNELS 3 Xrotation Zrotation Yrotation
		JOINT lShin
		{
			OFFSET -2.041588 -20.007561 0.000000 
			CHANNELS 3 Xrotation Zrotation Yrotation
			JOINT lFoot
			{
				OFFSET 0.000000 -19.190928 -1.224953 
				CHANNELS 3 Xrotation Yrotation Zrotation
				End Site
				{
					OFFSET 0.000000 -2.449906 4.627600 
				}
			}
		}
	}
	JOINT rThigh
	{
		OFFSET -5.308129 -1.633274 1.361059 
		CHANNELS 3 Xrotation Zrotation Yrotation
		JOINT rShin
		{
			OFFSET 2.041588 -20.007561 0.000000 
			CHANNELS 3 Xrotation Zrotation Yrotation
			JOINT rFoot
			{
				OFFSET 0.000000 -19.190928 -1.224953 
				CHANNELS 3 Xrotation Yrotation Zrotation
				End Site
				{
					OFFSET 0.000000 -2.449906 4.627600 
				}
			}
		}
	}
}
MOTION
Frames: 8
Frame Time: 0.011111
-3.929032 52.307152 -9.403214 1.566269 1.976564 -8.278969 23.089462 -4.027224 -3.152699 -20.667892 0.867541 -0.557296 -14.239176 -10.182927 -3.769315 11.578608 26.620989 -8.435838 2.424333 -4.683778 1.783845 -69.384438 -32.070484 14.228627 -44.313793 6.174420 5.941532 8.524705 12.647240 -57.161514 -2.738486 -1.140572 2.095526 68.950623 21.105133 21.218311 51.356915 -8.006969 8.709673 -8.534408 -12.637552 26.361185 -2.255685 6.650134 -3.015030 23.266895 -5.654275 -3.981339 -32.346535 11.674873 4.963794 -6.020160 -7.183737 17.508287 26.961596 5.473510 4.450628 -29.627615 -9.746122 -3.119477 
-3.928131 52.302940 -9.412837 1.537628 2.038584 -8.200043 23.189720 -4.066684 -3.072062 -20.658110 0.858332 -0.537393 -14.249943 -10.202441 -3.762562 11.592020 26.648834 -8.414479 2.424333 -4.683778 1.783845 -69.341606 -31.934427 14.491323 -44.755051 6.306839 6.105087 8.524705 12.647240 -56.878307 -2.738486 -1.140572 2.095526 68.791519 21.078798 21.398041 51.356915 -8.006969 8.709673 -8.534408 -12.637552 26.663919 -2.176278 6.598675 -3.087435 23.144821 -5.663157 -3.953014 -32.403904 11.486745 4.888297 -6.018347 -7.250730 17.439758 27.003452 5.462844 4.452629 -29.661308 -9.740957 -3.108774 
-3.928131 52.308060 -9.421258 1.518851 2.159603 -8.080219 23.251778 -4.144499 -3.055596 -20.579878 0.810681 -0.515617 -14.161982 -10.223253 -3.764249 11.378326 26.633137 -8.464335 2.424333 -4.683778 1.783845 -69.261223 -31.896652 14.665121 -45.094410 6.409682 6.235400 8.524705 12.647240 -56.595104 -2.738486 -1.140572 2.095526 68.664207 21.149534 21.324963 51.378334 -8.015054 8.729494 -8.534408 -12.637552 26.322123 -2.115576 6.456573 -3.124151 23.106781 -5.649435 -3.976107 -32.367996 11.435334 4.855331 -6.018045 -7.416394 17.292534 27.001438 5.473702 4.454168 -29.664686 -9.684471 -3.102790 
-3.929635 52.315277 -9.436295 1.567574 2.095195 -7.972869 23.306877 -3.997372 -2.892394 -20.569904 0.713566 -0.493811 -14.182498 -10.241002 -3.746007 11.284890 26.608238 -8.463108 2.424333 -4.683778 1.783845 -69.162041 -31.908005 14.936069 -45.310402 6.474356 6.323234 8.524705 12.647240 -56.194714 -2.738486 -1.140572 2.095526 68.536041 21.181200 21.486248 51.230869 -7.979010 8.660648 -8.534408 -12.637552 27.445171 -2.156836 6.539711 -3.296872 23.054350 -5.664216 -3.934694 -32.424809 11.416645 4.861310 -6.060449 -7.340875 17.202789 27.003452 5.462848 4.452629 -29.701235 -9.661659 -3.102633 
-3.928732 52.315880 -9.451632 1.606580 2.088662 -7.893619 23.364794 -3.940383 -2.766980 -20.560019 0.655709 -0.463125 -14.221653 -10.236244 -3.709453 11.215972 26.558992 -8.406563 2.424333 -4.683778 1.783845 -69.081215 -31.850695 15.202367 -45.681187 6.582625 6.464371 8.524705 12.647240 -55.696667 -2.738486 -1.140572 2.095526 68.378571 21.232931 21.594074 51.126434 -7.958319 8.619094 -8.534408 -12.637552 28.089705 -2.194602 6.536190 -3.522875 23.003771 -5.664031 -3.939986 -32.564423 11.420626 4.918682 -6.129752 -7.341647 17.113052 27.031317 5.473844 4.457756 -29.731318 -9.663998 -3.107558 
-3.931138 52.316483 -9.464262 1.655594 2.159751 -7.753197 23.405006 -3.960438 -2.714749 -20.560001 0.646372 -0.443386 -14.259509 -10.203047 -3.680009 11.155643 26.434509 -8.367350 2.424333 -4.683778 1.783845 -69.028282 -31.705029 15.523399 -46.145077 6.714552 6.643797 8.524705 12.647240 -55.266979 -2.738486 -1.140572 2.095526 68.241310 21.303808 20.524519 51.440830 -8.025834 8.750308 -8.534408 -12.637552 24.535015 -2.233603 6.478640 -3.593483 22.954124 -5.659774 -3.944525 -32.528374 11.338429 4.862324 -6.206785 -7.409254 17.023661 27.061199 5.473989 4.460412 -29.770544 -9.670022 -3.116206 
-3.934144 52.323093 -9.475691 1.695299 2.295618 -7.542685 23.445425 -4.013082 -2.793296 -20.550295 0.675315 -0.463435 -14.338111 -10.198071 -3.625922 11.150076 26.302580 -8.282644 2.424333 -4.683778 1.783845 -68.996964 -31.637156 15.698441 -46.444107 6.794967 6.752019 8.524705 12.647240 -54.934948 -2.738486 -1.140572 2.095526 68.065010 21.404684 20.557013 51.022015 -7.937412 8.577655 -8.534408 -12.637552 25.492046 -2.293913 6.375162 -3.694851 22.913601 -5.663641 -3.922296 -32.463783 11.181487 4.758804 -6.296238 -7.566678 16.835861 27.102964 5.458504 4.489526 -29.822348 -9.701996 -3.144664 
-3.941363 52.331219 -9.497342 1.793180 2.359977 -7.312428 23.444752 -4.002528 -2.821030 -20.560078 0.684786 -0.473526 -14.344514 -10.125270 -3.613876 11.085953 26.081491 -8.258524 2.424333 -4.683778 1.783845 -68.906456 -31.589758 15.862206 -46.702553 6.867208 6.852208 8.524705 12.647240 -54.720104 -2.738486 -1.140572 2.095526 67.918205 21.495239 20.444113 50.760574 -7.880817 8.466630 -8.534408 -12.637552 25.531109 -2.476434 6.349078 -3.761728 22.913601 -5.663638 -3.922296 -32.325794 11.030413 4.637525 -6.421094 -7.613819 16.775608 27.130890 5.472766 4.475879 -29.877501 -9.785670 -3.223543 
